<?xml version="1.0" encoding="UTF-8"?>
<!DOCTYPE svg PUBLIC "-//W3C//DTD SVG 1.1//EN" "http://www.w3.org/Graphics/SVG/1.1/DTD/svg11.dtd">
<!-- Creator: CorelDRAW X8 -->
<svg xmlns="http://www.w3.org/2000/svg" xml:space="preserve" width="43.3092mm" height="24.4128mm" version="1.1" style="shape-rendering:geometricPrecision; text-rendering:geometricPrecision; image-rendering:optimizeQuality; fill-rule:evenodd; clip-rule:evenodd"
viewBox="0 0 337 190"
 xmlns:xlink="http://www.w3.org/1999/xlink">
 <defs>
  <style type="text/css">
   <![CDATA[
    .fil0 {fill:#56524A;fill-rule:nonzero}
   ]]>
  </style>
 </defs>
 <g id="Layer_x0020_1">
  <metadata id="CorelCorpID_0Corel-Layer"/>
  <g id="_2255370948560">
   <path class="fil0" d="M6 0l5 0c2,0 5,1 7,3l0 0c2,2 3,5 3,8l0 96c0,2 -1,3 -2,4 -1,2 -2,2 -4,2l-9 0c-2,0 -3,0 -4,-2 -1,-1 -2,-2 -2,-4l0 -101c0,-2 1,-3 2,-4 1,-1 2,-2 4,-2zm5 7l-4 0 0 100 8 0 0 -96c0,-2 -1,-3 -2,-3l0 0c0,-1 -1,-1 -2,-1z"/>
   <path class="fil0" d="M4 121l12 0c1,0 2,0 2,1 1,1 1,2 1,3l0 61c0,2 0,2 -1,3l0 0c0,1 -1,1 -2,1l-12 0c-1,0 -2,0 -3,-1 -1,-1 -1,-1 -1,-3l0 -61c0,-1 0,-2 1,-3 1,-1 2,-1 3,-1zm9 7l-6 0 0 56 6 0 0 -56z"/>
   <path class="fil0" d="M5 107l48 0 0 20 -48 0c-1,0 -3,-1 -3,-1 -1,-1 -2,-3 -2,-4l0 -9c0,-2 1,-3 2,-4 0,-1 2,-2 3,-2zm42 7l-41 0 0 7 41 0 0 -7zm21 -7l3 0c1,0 2,1 3,2 1,1 1,2 1,4l0 9c0,1 0,3 -1,4 -1,0 -2,1 -3,1l-6 0 0 -20 3 0z"/>
   <path class="fil0" d="M331 7l-4 0c-1,0 -2,0 -3,1l0 0c-1,0 -1,1 -1,3l0 96 8 0 0 -100zm-4 -7l4 0c2,0 3,1 5,2 1,1 1,2 1,4l0 101c0,2 0,3 -1,4 -2,2 -3,2 -5,2l-9 0c-2,0 -3,0 -4,-2 -1,-1 -2,-2 -2,-4l0 -96c0,-3 1,-6 3,-8l0 0c2,-2 5,-3 8,-3z"/>
   <path class="fil0" d="M331 128l-6 0 0 56 6 0 0 -56zm-9 -7l12 0c1,0 2,0 2,1 1,1 1,2 1,3l0 61c0,2 0,2 -1,3 0,1 -1,1 -2,1l-12 0c-1,0 -2,0 -3,-1l0 0c-1,-1 -1,-1 -1,-3l0 -61c0,-1 0,-2 1,-3 1,-1 2,-1 3,-1z"/>
   <path class="fil0" d="M331 114l-43 0 0 7 43 0 0 -7zm-46 -7l47 0c2,0 3,1 4,2 1,1 1,2 1,4l0 9c0,1 0,3 -1,4 -1,0 -2,1 -4,1l-50 0 0 -20 3 0zm-19 0l4 0 0 20 -4 0c-2,0 -3,-1 -4,-1 -1,-1 -1,-3 -1,-4l0 -9c0,-2 0,-3 1,-4 1,-1 2,-2 4,-2z"/>
   <path class="fil0" d="M47 48l40 0 0 25 -15 0 0 113c0,1 -1,2 -1,3l0 0c-1,1 -2,1 -3,1l-18 0c-1,0 -1,0 -2,-1 -1,-1 -1,-1 -1,-3l0 -113 0 0c-3,0 -6,-1 -8,-3 -2,-2 -3,-5 -3,-8l0 -4c0,-2 1,-5 3,-7 2,-2 5,-3 8,-3zm34 6l-34 0c-1,0 -2,1 -3,2 -1,0 -1,1 -1,2l0 4c0,1 0,2 1,3 1,1 2,1 3,1l34 0 0 -12zm77 -6l24 0 0 25 -28 0 0 -25 4 0zm18 6l-15 0 0 12 15 0 0 -12zm77 -6l35 0c3,0 6,1 8,3 2,2 3,5 3,7l0 4c0,3 -1,6 -3,8l0 0c-2,2 -5,3 -8,3l0 0 0 113c0,1 0,2 -1,3 0,1 -1,1 -2,1l-18 0c-1,0 -2,0 -2,-1l0 0c-1,-1 -1,-1 -1,-3l0 -113 -15 0 0 -25 4 0zm35 6l-32 0 0 12 32 0c2,0 3,0 3,-1l0 0c1,-1 2,-2 2,-3l0 -4c0,-1 -1,-2 -2,-2 0,-1 -1,-2 -3,-2zm-223 19l-12 0 0 111 12 0 0 -111zm217 0l-12 0 0 111 12 0 0 -111z"/>
   <path class="fil0" d="M93 0l55 0c4,0 7,1 9,4 2,2 4,5 4,9l0 93c0,2 -1,4 -2,6 -2,1 -3,2 -5,2l-66 0c-2,0 -4,-1 -5,-2 -2,-2 -2,-4 -2,-6l0 -93c0,-4 1,-7 3,-9 3,-3 6,-4 9,-4zm55 7l-55 0c-1,0 -3,0 -4,1 -1,1 -2,3 -2,5l0 93c0,1 0,1 0,1 1,0 1,0 1,0l66 0c0,0 0,0 0,0 0,0 0,0 0,-1l0 -93c0,-2 0,-4 -1,-5 -1,-1 -3,-1 -5,-1z"/>
   <path class="fil0" d="M85 107l71 0c1,0 2,1 3,2 1,1 2,2 2,4l0 9c0,1 -1,3 -2,4 -1,0 -2,1 -3,1l-71 0c-1,0 -2,-1 -3,-1 -1,-1 -2,-3 -2,-4l0 -9c0,-2 1,-3 2,-4 1,-1 2,-2 3,-2zm69 7l-67 0 0 7 67 0 0 -7z"/>
   <path class="fil0" d="M84 121l12 0c1,0 2,0 2,1 1,1 2,2 2,3l0 61c0,2 -1,2 -2,3l0 0c0,1 -1,1 -2,1l-12 0c-1,0 -2,0 -3,-1 0,-1 -1,-2 -1,-3l0 -61c0,-1 1,-2 1,-3 1,-1 2,-1 3,-1zm9 7l-6 0 0 56 6 0 0 -56z"/>
   <path class="fil0" d="M145 121l12 0c1,0 2,0 3,1 0,1 1,2 1,3l0 61c0,2 -1,2 -1,3l0 0c-1,1 -2,1 -3,1l-12 0c-1,0 -2,0 -3,-1 0,-1 -1,-1 -1,-3l0 -61c0,-1 1,-2 1,-3l0 0c1,-1 2,-1 3,-1zm9 7l-6 0 0 56 6 0 0 -56z"/>
   <polygon class="fil0" points="117,111 117,4 124,4 124,111 "/>
   <path class="fil0" d="M188 0l55 0c4,0 7,1 9,4 3,2 4,5 4,9l0 93c0,2 -1,4 -2,6 -2,1 -3,2 -5,2l-66 0c-2,0 -4,-1 -5,-2 -2,-2 -2,-4 -2,-6l0 -93c0,-4 1,-7 3,-9 3,-3 6,-4 9,-4zm55 7l-55 0c-1,0 -3,0 -4,1 -1,1 -2,3 -2,5l0 93c0,1 0,1 0,1 1,0 1,0 1,0l66 0c0,0 0,0 0,0 0,0 0,0 0,-1l0 -93c0,-2 0,-4 -1,-5 -1,-1 -3,-1 -5,-1z"/>
   <path class="fil0" d="M180 107l71 0c1,0 2,1 3,2 1,1 2,2 2,4l0 9c0,1 -1,3 -2,4 -1,0 -2,1 -3,1l-71 0c-1,0 -2,-1 -3,-1 -1,-1 -2,-3 -2,-4l0 -9c0,-2 1,-3 2,-4 1,-1 2,-2 3,-2zm69 7l-67 0 0 7 67 0 0 -7z"/>
   <path class="fil0" d="M179 121l12 0c1,0 2,0 2,1 1,1 2,2 2,3l0 61c0,2 -1,2 -2,3 0,1 -1,1 -2,1l-12 0c-1,0 -2,0 -3,-1 0,-1 -1,-2 -1,-3l0 -61c0,-1 1,-2 1,-3l0 0c1,-1 2,-1 3,-1zm9 7l-6 0 0 56 6 0 0 -56z"/>
   <path class="fil0" d="M240 121l12 0c1,0 2,0 3,1 0,1 1,2 1,3l0 61c0,2 -1,2 -1,3 -1,1 -2,1 -3,1l-12 0c-1,0 -2,0 -3,-1 0,-1 -1,-2 -1,-3l0 -61c0,-1 1,-2 1,-3l0 0c1,-1 2,-1 3,-1zm9 7l-6 0 0 56 6 0 0 -56z"/>
   <polygon class="fil0" points="213,111 213,4 219,4 219,111 "/>
  </g>
 </g>
</svg>
