<?xml version="1.0" encoding="UTF-8"?>
<!DOCTYPE svg PUBLIC "-//W3C//DTD SVG 1.1//EN" "http://www.w3.org/Graphics/SVG/1.1/DTD/svg11.dtd">
<!-- Creator: CorelDRAW X8 -->
<svg xmlns="http://www.w3.org/2000/svg" xml:space="preserve" width="42.9385mm" height="20.4596mm" version="1.1" style="shape-rendering:geometricPrecision; text-rendering:geometricPrecision; image-rendering:optimizeQuality; fill-rule:evenodd; clip-rule:evenodd"
viewBox="0 0 437 208"
 xmlns:xlink="http://www.w3.org/1999/xlink">
 <defs>
  <style type="text/css">
   <![CDATA[
    .fil0 {fill:#56524A;fill-rule:nonzero}
   ]]>
  </style>
 </defs>
 <g id="Layer_x0020_1">
  <metadata id="CorelCorpID_0Corel-Layer"/>
  <path class="fil0" d="M436 117l0 8c0,5 -1,8 -3,12 -2,3 -5,6 -11,7l-268 63c-8,2 -17,1 -26,-2 -9,-2 -18,-7 -25,-13l-92 -81c-4,-2 -6,-5 -8,-8 -2,-3 -3,-6 -3,-9l0 0 0 0 1 -38 0 0c0,-3 1,-5 4,-8 2,-2 5,-3 9,-4l249 -44c2,0 3,0 6,0 1,0 3,0 5,0 7,1 13,4 20,6 7,3 13,6 19,9l112 61c5,3 8,6 10,9 2,3 2,7 2,10 0,1 0,2 -1,3l0 19zm-7 8l0 -1 0 0 0 -7 0 -2 0 0 0 -8c-2,0 -4,1 -6,2l-269 63c-7,2 -16,1 -26,-2 -9,-2 -18,-7 -24,-13l-93 -81c-1,-1 -2,-2 -4,-4l0 14 0 0 0 8c0,1 1,3 2,5 2,2 4,5 6,7l92 81c7,5 15,9 23,12 8,2 16,3 22,1l269 -63c3,-1 5,-2 6,-4 1,-2 2,-5 2,-8zm-340 5c9,-1 20,-2 32,0 11,1 23,3 33,7 3,-6 7,-13 11,-18 3,-3 6,-6 9,-8 -10,-3 -20,-4 -30,-5 -11,-1 -21,-1 -31,-1l-1 1c-4,2 -8,6 -12,10 -4,4 -8,9 -11,14zm31 7c-11,-1 -21,-1 -29,0l17 15c6,5 14,9 23,12l0 0c2,-6 6,-10 9,-14 2,-3 5,-6 8,-8 -9,-3 -18,-4 -28,-5zm42 -1c10,-1 21,-1 32,0 12,2 24,4 34,7 3,-5 7,-10 10,-15 4,-4 8,-8 11,-11 -10,-2 -20,-4 -30,-5 -12,-1 -24,-1 -34,0l-1 0c-5,3 -9,7 -13,12 -4,3 -7,8 -9,12zm31 7c-12,-1 -24,-1 -35,1 -4,2 -9,6 -13,10 -2,4 -5,7 -7,11 5,1 11,1 15,0l70 -16c-10,-3 -20,-5 -30,-6zm-145 -51c7,-2 16,-2 25,-1 12,1 25,4 36,7 3,-6 8,-13 13,-19 4,-4 8,-8 12,-11 -7,-2 -16,-3 -24,-4 -11,-1 -21,-1 -30,0l0 0c-2,1 -3,2 -5,3 -9,6 -19,12 -27,25zm25 6c-10,-1 -18,0 -25,1l34 29c3,-6 8,-12 13,-17 2,-2 5,-5 7,-7 -9,-3 -20,-5 -29,-6zm44 0c9,0 18,0 27,1 13,1 25,3 37,6 3,-7 8,-13 12,-19 4,-4 8,-8 12,-11 -9,-3 -18,-4 -28,-5 -11,-1 -23,-1 -33,0 -4,2 -11,8 -17,14 -3,4 -7,9 -10,14zm72 7c10,-1 20,-1 31,0 11,1 24,3 35,6 3,-7 7,-13 12,-19 3,-4 7,-7 10,-10 -9,-3 -19,-4 -29,-6 -11,-1 -22,-1 -32,1l0 0 -1 0c-6,3 -11,8 -16,14 -4,4 -7,9 -10,14zm74 6c10,-1 22,0 33,1 12,1 25,3 37,6 3,-7 7,-13 11,-19 4,-4 8,-8 12,-11 -10,-2 -21,-4 -31,-5 -13,-1 -27,-1 -38,1 -5,3 -10,7 -14,12 -4,5 -7,10 -10,15zm33 8c-13,-1 -25,-1 -37,0l0 0c-5,3 -11,8 -15,14 -3,4 -6,8 -9,13l93 -22c-11,-3 -22,-4 -32,-5zm-73 -97c-11,-2 -22,-2 -33,-1l0 0c-3,2 -7,5 -10,8 -2,2 -4,4 -5,7 8,0 17,0 27,1 11,1 22,3 33,5 2,-4 5,-9 8,-12 1,-2 3,-3 4,-4 -8,-2 -16,-4 -24,-4zm1 -8c10,2 21,3 30,6 3,-5 5,-8 8,-12l1 0 -39 6zm39 5c8,0 17,0 26,0 7,1 13,1 20,2 -6,-3 -12,-6 -18,-8 -6,-3 -12,-5 -17,-5 -2,1 -4,3 -6,5 -2,2 -4,4 -5,6zm25 7c-10,0 -20,0 -30,1l-1 0c-2,1 -5,4 -8,7 -2,3 -4,5 -6,8 11,0 21,0 32,1 11,1 22,3 32,6 2,-5 5,-9 8,-13 2,-2 4,-4 6,-6 -11,-2 -22,-3 -33,-4zm-154 4l3 1c10,0 20,2 30,5 2,-5 4,-8 7,-12 1,0 1,-1 2,-1l-42 7zm2 8c-10,-1 -20,-1 -29,-1l0 1c-4,2 -9,5 -14,10 -3,2 -5,5 -8,9 8,-1 17,-1 26,0 10,1 21,3 30,6 3,-5 7,-11 11,-15 2,-3 5,-5 7,-7 -7,-1 -15,-3 -23,-3zm65 6c-12,-1 -23,-1 -32,-1 -4,2 -8,6 -12,10 -2,3 -5,6 -7,10 8,-1 18,-1 28,0 11,1 23,3 33,7 7,-12 12,-17 18,-22 -9,-2 -19,-3 -28,-4zm74 6c-13,-1 -25,-1 -37,0 -7,5 -12,9 -18,19 9,-1 19,-1 29,0 12,2 24,4 35,7 3,-5 6,-10 10,-15 2,-2 4,-5 6,-7 -8,-2 -17,-3 -25,-4zm40 -1c11,-1 22,0 32,1 7,0 13,1 19,2l-37 -20c-2,2 -5,5 -8,8 -2,3 -4,6 -6,9zm32 8c-13,-1 -25,-2 -38,-1 -3,3 -7,6 -10,10 -2,3 -5,6 -7,10 11,-1 22,-1 34,0 12,1 24,4 36,7 2,-5 5,-9 8,-13 3,-3 5,-6 8,-8 -10,-2 -21,-4 -31,-5zm-335 -5l64 6c3,-6 8,-11 12,-15 2,-2 4,-4 7,-6l-80 14c-1,0 -2,1 -3,1zm55 12l-59 -5c0,1 1,3 2,5 1,2 3,5 6,7l24 21c7,-14 17,-22 27,-28zm303 19c9,-1 19,0 28,1 11,1 21,3 31,5l0 0c-1,-3 -4,-5 -7,-7l-35 -19c-4,3 -8,7 -11,11 -3,3 -5,6 -6,9zm28 8c-11,-1 -22,-2 -33,0l0 0c-5,3 -11,7 -15,13 -5,5 -8,11 -11,17l82 -19c3,-1 5,-2 7,-4 0,0 1,-1 1,-1l0 0 0 0 0 -1c-10,-2 -21,-4 -31,-5z"/>
 </g>
</svg>
