<?xml version="1.0" encoding="UTF-8"?>
<!DOCTYPE svg PUBLIC "-//W3C//DTD SVG 1.1//EN" "http://www.w3.org/Graphics/SVG/1.1/DTD/svg11.dtd">
<!-- Creator: CorelDRAW X8 -->
<svg xmlns="http://www.w3.org/2000/svg" xml:space="preserve" width="15.6748mm" height="37.8354mm" version="1.1" style="shape-rendering:geometricPrecision; text-rendering:geometricPrecision; image-rendering:optimizeQuality; fill-rule:evenodd; clip-rule:evenodd"
viewBox="0 0 257 619"
 xmlns:xlink="http://www.w3.org/1999/xlink">
 <defs>
  <style type="text/css">
   <![CDATA[
    .fil0 {fill:#56524A;fill-rule:nonzero}
   ]]>
  </style>
 </defs>
 <g id="Layer_x0020_1">
  <metadata id="CorelCorpID_0Corel-Layer"/>
  <g id="_2255391111408">
   <path class="fil0" d="M37 116l87 0c3,0 5,-3 5,-6l0 -89c0,-3 -2,-5 -5,-5l-87 0c-2,0 -5,2 -5,5l0 89c0,3 3,6 5,6zm82 -11l-9 0 0 -79 9 0 0 79zm-29 -79l9 0 0 79 -9 0 0 -79zm-10 79l-13 0 0 -79 13 0 0 79zm-37 -79l13 0 0 79 -13 0 0 -79z"/>
   <path class="fil0" d="M229 120l-53 0c-3,0 -5,3 -5,5l0 90c0,3 2,5 5,5l53 0c3,0 5,-2 5,-5l0 -90c0,-2 -2,-5 -5,-5zm-48 11l16 0 0 79 -16 0 0 -79zm43 79l-16 0 0 -79 16 0 0 79z"/>
   <path class="fil0" d="M108 226l-22 0c-3,0 -5,3 -5,5l0 90c0,3 2,5 5,5l64 0c3,0 5,-2 5,-5l0 -90c0,-2 -2,-5 -5,-5l-42 0zm-6 90l-11 0 0 -79 11 0 0 79zm11 -79l11 0 0 79 -11 0 0 -79zm32 79l-11 0 0 -79 11 0 0 79z"/>
   <path class="fil0" d="M206 446l-113 0c-3,0 -5,2 -5,5l0 118c0,3 2,5 5,5l113 0c3,0 5,-2 5,-5l0 -118c0,-3 -2,-5 -5,-5zm-90 118l-18 0 0 -108 18 0 0 108zm11 -108l17 0 0 108 -17 0 0 -108zm28 0l18 0 0 108 -18 0 0 -108zm46 108l-18 0 0 -108 18 0 0 108z"/>
   <path class="fil0" d="M220 364l-135 0c-3,0 -6,3 -6,6l0 56c0,3 3,5 6,5l135 0c3,0 6,-2 6,-5l0 -56c0,-3 -3,-6 -6,-6zm-130 11l125 0 0 18 -125 0 0 -18zm125 46l-125 0 0 -18 125 0 0 18z"/>
   <path class="fil0" d="M83 220l21 0c0,0 0,0 0,0 3,0 5,-2 5,-5 0,-1 0,-2 -1,-3l-28 -88c-1,-2 -3,-4 -5,-4l-43 0c0,0 0,0 0,0 0,0 0,0 0,0l-21 0c-2,0 -4,1 -5,2 -1,2 -1,3 0,5l29 90c0,2 2,3 5,3l21 0c0,0 0,0 0,0l21 0c0,0 0,0 1,0zm-12 -89l25 79 -10 0 -26 -79 11 0zm-28 79l-25 -79 10 0 26 79 -11 0zm22 0l-26 -79 10 0 9 26 17 53 -10 0z"/>
   <path class="fil0" d="M246 0l-236 0c-5,0 -10,5 -10,10l0 601c0,4 4,8 9,8l25 0c5,0 9,-4 9,-8l0 -36 171 0 0 36c0,4 4,8 9,8l25 0c5,0 9,-4 9,-8l0 -601c0,-5 -5,-10 -11,-10zm-27 565c0,0 0,0 0,0l-180 0c-1,0 -1,0 -2,0l-27 0 0 -134 236 0 0 134 -27 0zm27 -355l-236 0 0 -94 236 0 0 94zm0 11l0 95 -236 0 0 -95 236 0zm0 105l0 95 -236 0 0 -95 236 0zm0 -316l0 95 -236 0 0 -95 236 0zm-214 599l-22 0 0 -34 22 0 0 34zm214 0l-22 0 0 -34 22 0 0 34z"/>
  </g>
 </g>
</svg>
