<?xml version="1.0" encoding="UTF-8"?>
<!DOCTYPE svg PUBLIC "-//W3C//DTD SVG 1.1//EN" "http://www.w3.org/Graphics/SVG/1.1/DTD/svg11.dtd">
<!-- Creator: CorelDRAW X8 -->
<svg xmlns="http://www.w3.org/2000/svg" xml:space="preserve" width="45.8635mm" height="33.1587mm" version="1.1" style="shape-rendering:geometricPrecision; text-rendering:geometricPrecision; image-rendering:optimizeQuality; fill-rule:evenodd; clip-rule:evenodd"
viewBox="0 0 541 391"
 xmlns:xlink="http://www.w3.org/1999/xlink">
 <defs>
  <style type="text/css">
   <![CDATA[
    .fil0 {fill:#56524A;fill-rule:nonzero}
   ]]>
  </style>
 </defs>
 <g id="Layer_x0020_1">
  <metadata id="CorelCorpID_0Corel-Layer"/>
  <g id="_2255391114256">
   <path class="fil0" d="M15 97l283 0 0 51 -283 0c-4,0 -8,-2 -11,-4 -2,-3 -4,-7 -4,-11l0 -21c0,-4 2,-7 4,-10 3,-3 7,-5 11,-5zm272 12l-272 0c-1,0 -2,0 -3,1 0,0 -1,1 -1,2l0 21c0,1 1,2 1,3 1,0 2,1 3,1l272 0 0 -28zm144 -12l95 0c4,0 8,2 11,5 2,3 4,6 4,10l0 21c0,4 -2,8 -4,11 -3,2 -7,4 -11,4l-100 0 0 -51 5 0zm95 12l-89 0 0 28 89 0c1,0 2,-1 3,-1 0,-1 1,-2 1,-3l0 -21c0,-1 -1,-2 -1,-2 -1,-1 -2,-1 -3,-1z"/>
   <path class="fil0" d="M475 381l0 -235c0,-2 1,-4 3,-6 1,-1 3,-2 5,-2l30 0c2,0 4,1 6,2 1,2 2,4 2,6l0 235c0,2 -1,4 -2,5 -2,2 -4,3 -6,3l-30 0c-2,0 -4,-1 -5,-3l0 0c-2,-1 -3,-3 -3,-5zm12 -231l0 227 23 0 0 -227 -23 0z"/>
   <path class="fil0" d="M31 137l197 0c2,0 5,1 7,3 2,2 3,5 3,7l0 63c0,3 -1,5 -3,7l0 0c-2,2 -5,3 -7,3l-197 0c-3,0 -6,-1 -8,-3 -1,-2 -3,-4 -3,-7l0 -63c0,-2 2,-5 3,-7l0 0c2,-2 5,-3 8,-3zm196 11l-195 0 0 61 195 0 0 -61z"/>
   <path class="fil0" d="M31 209l197 0c2,0 5,1 7,3 2,2 3,4 3,7l0 63c0,3 -1,5 -3,7l0 0c-2,2 -5,3 -7,3l-197 0c-3,0 -6,-1 -8,-3 -1,-2 -3,-4 -3,-7l0 -63c0,-3 2,-5 3,-7l0 0c2,-2 5,-3 8,-3zm196 11l-195 0 0 61 195 0 0 -61z"/>
   <path class="fil0" d="M31 281l197 0c2,0 5,1 7,3 2,2 3,4 3,7l0 63c0,2 -1,5 -3,7l0 0c-2,2 -5,3 -7,3l-197 0c-3,0 -6,-1 -8,-3 -1,-2 -3,-5 -3,-7l0 -63c0,-3 2,-5 3,-7l0 0c2,-2 5,-3 8,-3zm196 11l-195 0 0 61 195 0 0 -61z"/>
   <path class="fil0" d="M104 382l0 -21c0,-2 1,-4 2,-5 1,-2 3,-3 5,-3l36 0c2,0 4,1 5,3l1 0c1,1 2,3 2,5l0 21c0,3 -1,4 -2,6 -2,1 -4,2 -6,2l-36 0c-2,0 -4,-1 -5,-2 -1,-2 -2,-3 -2,-6zm11 -17l0 14 28 0 0 -14 -28 0z"/>
   <polygon class="fil0" points="93,173 165,173 165,184 93,184 "/>
   <polygon class="fil0" points="93,245 165,245 165,256 93,256 "/>
   <polygon class="fil0" points="93,317 165,317 165,328 93,328 "/>
   <path class="fil0" d="M318 0l88 0c9,0 16,3 22,9 5,6 9,13 9,22l0 148c0,4 -2,7 -4,10 -3,3 -7,4 -11,4l-121 0c-4,0 -7,-1 -10,-4 -2,-3 -4,-6 -4,-10l0 -148c0,-9 3,-16 9,-22 6,-6 13,-9 22,-9zm88 11l-88 0c-6,0 -11,2 -14,6 -4,3 -6,8 -6,14l0 148c0,1 0,2 1,2 1,1 1,1 2,1l121 0c1,0 2,0 3,-1 0,0 1,-1 1,-2l0 -148c0,-6 -3,-11 -6,-14 -4,-4 -9,-6 -14,-6z"/>
   <path class="fil0" d="M292 211c23,-5 47,-7 70,-7 24,0 48,2 70,7 2,1 4,2 5,3 2,1 3,3 3,6l0 21c0,3 -2,5 -3,7 -2,1 -4,2 -6,2l-138 0c-2,0 -4,-1 -6,-2 -2,-2 -3,-4 -3,-7l0 -21c0,-3 1,-5 3,-6 1,-1 3,-2 5,-3zm70 4c-22,0 -45,2 -67,7l0 17 133 0 0 -17c-21,-5 -43,-7 -66,-7z"/>
   <path class="fil0" d="M345 183l34 0c2,0 4,1 6,2 2,2 3,4 3,7l0 14c0,3 -1,5 -3,7 -2,1 -4,2 -6,2l-34 0c-2,0 -5,-1 -6,-2 -2,-2 -3,-4 -3,-7l0 -14c0,-3 1,-5 3,-7 1,-1 4,-2 6,-2zm31 11l-29 0 0 10 29 0 0 -10z"/>
   <path class="fil0" d="M354 239l16 0c2,0 3,0 4,2l0 0c1,1 2,2 2,4l0 100c0,2 -1,4 -2,5 -1,1 -2,2 -4,2l-16 0c-2,0 -3,-1 -5,-2 -1,-1 -1,-3 -1,-5l0 -100c0,-2 0,-3 1,-4 2,-2 3,-2 5,-2zm11 11l-6 0 0 90 6 0 0 -90z"/>
   <path class="fil0" d="M279 359l0 -10c0,-3 1,-5 2,-6 2,-2 4,-3 6,-3l150 0c2,0 4,1 6,3 1,1 2,3 2,6l0 10c0,2 -1,4 -2,5 -2,2 -4,3 -6,3l-150 0c-2,0 -4,-1 -6,-3 -1,-1 -2,-3 -2,-5zm11 -8l0 5 144 0 0 -5 -144 0z"/>
   <path class="fil0" d="M291 367l9 0c4,0 7,1 9,3l0 0c2,3 4,6 4,9 0,3 -2,6 -4,9l0 0c-2,2 -5,3 -9,3l-9 0c-4,0 -7,-1 -9,-3l0 0c-2,-3 -3,-6 -3,-9 0,-3 1,-6 3,-9l0 0c2,-2 5,-3 9,-3zm9 11l-9 0c0,0 -1,0 -1,0l0 0c0,1 0,1 0,1 0,0 0,0 0,1l0 0c0,0 1,0 1,0l9 0c1,0 1,0 1,0l0 0c0,-1 0,-1 0,-1 0,0 0,0 0,-1l0 0c0,0 0,0 -1,0z"/>
   <path class="fil0" d="M423 367l10 0c3,0 6,1 9,3 2,3 3,6 3,9 0,3 -1,6 -3,9 -3,2 -6,3 -9,3l-10 0c-3,0 -6,-1 -8,-3 -2,-3 -4,-6 -4,-9 0,-3 2,-6 4,-9 2,-2 5,-3 8,-3zm10 11l-10 0c0,0 0,0 0,0 0,1 -1,1 -1,1 0,0 1,0 1,1 0,0 0,0 0,0l10 0c0,0 0,0 1,0 0,-1 0,-1 0,-1 0,0 0,0 0,-1 -1,0 -1,0 -1,0z"/>
  </g>
 </g>
</svg>
