<?xml version="1.0" encoding="UTF-8"?>
<!DOCTYPE svg PUBLIC "-//W3C//DTD SVG 1.1//EN" "http://www.w3.org/Graphics/SVG/1.1/DTD/svg11.dtd">
<!-- Creator: CorelDRAW X8 -->
<svg xmlns="http://www.w3.org/2000/svg" xml:space="preserve" width="41.2571mm" height="33.1434mm" version="1.1" style="shape-rendering:geometricPrecision; text-rendering:geometricPrecision; image-rendering:optimizeQuality; fill-rule:evenodd; clip-rule:evenodd"
viewBox="0 0 400 321"
 xmlns:xlink="http://www.w3.org/1999/xlink">
 <defs>
  <style type="text/css">
   <![CDATA[
    .fil0 {fill:#56524A;fill-rule:nonzero}
   ]]>
  </style>
 </defs>
 <g id="Layer_x0020_1">
  <metadata id="CorelCorpID_0Corel-Layer"/>
  <g id="_2255391118352">
   <path class="fil0" d="M147 0l-139 0c-4,0 -8,4 -8,8l0 306c0,4 4,7 8,7l139 0c4,0 7,-3 7,-7l0 -306c0,-4 -3,-8 -7,-8zm-139 6l139 0c1,0 1,1 1,2l0 62 -142 0 0 -62c0,-1 1,-2 2,-2zm139 309l-139 0c-1,0 -2,0 -2,-1l0 -238 142 0 0 238c0,1 0,1 -1,1z"/>
   <path class="fil0" d="M29 90c-4,0 -7,3 -7,7l0 30c0,4 3,7 7,7 5,0 8,-3 8,-7l0 -30c0,-4 -3,-7 -8,-7zm2 37c0,0 -1,1 -2,1 0,0 -1,-1 -1,-1l0 -30c0,0 1,-1 1,-1 1,0 2,1 2,1l0 30z"/>
   <path class="fil0" d="M222 290l-23 0c-4,0 -7,3 -7,6 0,4 3,7 7,7l23 0c4,0 7,-3 7,-7 0,-3 -3,-6 -7,-6zm0 7l-23 0c-1,0 -1,0 -1,-1 0,0 0,0 1,0l23 0c1,0 1,0 1,0 0,1 0,1 -1,1z"/>
   <path class="fil0" d="M199 259l23 0c4,0 7,-3 7,-7 0,-4 -3,-7 -7,-7l-23 0c-4,0 -7,3 -7,7 0,4 3,7 7,7zm0 -8l23 0c1,0 1,1 1,1 0,0 0,0 -1,0l-23 0c-1,0 -1,0 -1,0 0,0 0,-1 1,-1z"/>
   <path class="fil0" d="M222 201l-23 0c-4,0 -7,3 -7,7 0,3 3,6 7,6l23 0c4,0 7,-3 7,-6 0,-4 -3,-7 -7,-7zm0 7l-23 0c-1,0 -1,0 -1,0 0,-1 0,-1 1,-1l23 0c1,0 1,0 1,1 0,0 0,0 -1,0z"/>
   <path class="fil0" d="M199 170l23 0c4,0 7,-3 7,-7 0,-3 -3,-6 -7,-6l-23 0c-4,0 -7,3 -7,6 0,4 3,7 7,7zm0 -7l23 0c1,0 1,0 1,0 0,1 0,1 -1,1l-23 0c-1,0 -1,0 -1,-1 0,0 0,0 1,0z"/>
   <path class="fil0" d="M267 138l-113 0c-3,0 -6,3 -6,6l0 172c0,3 3,5 6,5l113 0c3,0 6,-2 6,-5l0 -172c0,-3 -3,-6 -6,-6zm0 6l0 38 -113 0 0 -38 113 0zm-113 83l0 -39 113 0 0 39 -113 0zm113 6l0 38 -113 0 0 -38 113 0zm-113 82l0 -38 113 0 0 38 -113 0z"/>
   <path class="fil0" d="M381 183l-95 0c-4,0 -6,3 -6,6l0 3c0,3 2,6 6,6l95 0c4,0 6,-3 6,-6l0 -3c0,-3 -2,-6 -6,-6zm0 9l-95 0 0 -3 95 0 0 3z"/>
   <path class="fil0" d="M378 209l-89 0c-3,0 -5,2 -5,5l0 73c0,2 2,4 5,4l89 0c3,0 5,-2 5,-4l0 -73c0,-3 -2,-5 -5,-5zm-1 76l-87 0 0 -70 87 0 0 70z"/>
   <path class="fil0" d="M290 173c4,0 8,-3 8,-7 0,-5 -4,-8 -8,-8 -5,0 -8,3 -8,8 0,4 3,7 8,7zm0 -9c1,0 2,1 2,2 0,1 -1,1 -2,1 -1,0 -2,0 -2,-1 0,-1 1,-2 2,-2z"/>
   <path class="fil0" d="M312 173c4,0 8,-3 8,-7 0,-5 -4,-8 -8,-8 -5,0 -8,3 -8,8 0,4 3,7 8,7zm0 -9c1,0 1,1 1,2 0,1 0,1 -1,1 -1,0 -2,0 -2,-1 0,-1 1,-2 2,-2z"/>
   <path class="fil0" d="M333 173c5,0 8,-3 8,-7 0,-5 -3,-8 -8,-8 -4,0 -7,3 -7,8 0,4 3,7 7,7zm0 -9c1,0 2,1 2,2 0,1 -1,1 -2,1 -1,0 -1,0 -1,-1 0,-1 0,-2 1,-2z"/>
   <path class="fil0" d="M355 173c5,0 8,-3 8,-7 0,-5 -3,-8 -8,-8 -4,0 -8,3 -8,8 0,4 4,7 8,7zm0 -9c1,0 2,1 2,2 0,1 -1,1 -2,1 -1,0 -1,0 -1,-1 0,-1 0,-2 1,-2z"/>
   <path class="fil0" d="M377 173c5,0 8,-3 8,-7 0,-5 -3,-8 -8,-8 -4,0 -8,3 -8,8 0,4 4,7 8,7zm0 -9c1,0 2,1 2,2 0,1 -1,1 -2,1 -1,0 -2,0 -2,-1 0,-1 1,-2 2,-2z"/>
   <path class="fil0" d="M395 138l-6 0 -1 -5c0,-2 -3,-4 -5,-4l-39 0c-2,0 -4,2 -5,4l-1 5 -10 0 0 -5c-1,-2 -3,-4 -5,-4l-39 0c-2,0 -5,2 -5,4l-1 5 -6 0c-3,0 -5,2 -5,5l0 174c0,2 2,4 5,4l123 0c3,0 5,-2 5,-4l0 -175c0,-2 -2,-4 -5,-4zm-50 -3l37 0 1 3 -38 0 0 -3zm-60 0l37 0 0 3 -38 0 1 -3zm109 180l-121 0 0 -171 121 0 0 171z"/>
   <path class="fil0" d="M392 0l-121 0c-3,0 -5,3 -5,6l0 25c0,3 2,6 5,6l121 0c3,0 6,-3 6,-6l0 -25c0,-3 -3,-6 -6,-6zm-1 30l-119 0 0 -24 119 0 0 24z"/>
   <path class="fil0" d="M393 86l-36 -39 0 -13c0,-2 -2,-4 -4,-4l-41 0c-2,0 -4,2 -4,4l0 13 -37 39c-1,1 -1,3 0,4 0,1 1,2 3,2l117 0c1,0 2,-1 3,-2 1,-1 0,-3 -1,-4zm-42 -49l0 8 -37 0 0 -8 37 0zm-71 49l32 -35 40 0 33 35 -105 0z"/>
   <path class="fil0" d="M243 77l-71 0c-4,0 -6,3 -6,6l0 46c0,4 2,6 5,6l0 1c0,2 2,4 4,4 2,0 4,-2 4,-4l0 -1 56 0 0 1c0,2 2,4 4,4 3,0 4,-2 4,-4l0 -1c3,0 6,-2 6,-6l0 -46c0,-3 -3,-6 -6,-6zm0 52l-11 0 0 -46 11 0 0 46zm-17 -46l0 46 -54 0 0 -46 54 0z"/>
   <path class="fil0" d="M180 127l38 0c3,0 6,-3 6,-6l0 -30c0,-3 -3,-5 -6,-5l-38 0c-3,0 -6,2 -6,5l0 30c0,3 3,6 6,6zm37 -36l0 30 -37 0 0 -29 37 -1z"/>
   <path class="fil0" d="M237 125c3,0 4,-2 4,-4 0,-2 -1,-4 -4,-4 -2,0 -4,2 -4,4 0,2 2,4 4,4z"/>
   <path class="fil0" d="M266 0l-112 0c-3,0 -5,3 -5,6l0 25c0,3 2,6 5,6l112 0c3,0 6,-3 6,-6l0 -25c0,-3 -3,-6 -6,-6zm0 30l-111 0 0 -24 111 0 0 24z"/>
  </g>
 </g>
</svg>
