<?xml version="1.0" encoding="UTF-8"?>
<!DOCTYPE svg PUBLIC "-//W3C//DTD SVG 1.1//EN" "http://www.w3.org/Graphics/SVG/1.1/DTD/svg11.dtd">
<!-- Creator: CorelDRAW X8 -->
<svg xmlns="http://www.w3.org/2000/svg" xml:space="preserve" width="45.8518mm" height="24.7398mm" version="1.1" style="shape-rendering:geometricPrecision; text-rendering:geometricPrecision; image-rendering:optimizeQuality; fill-rule:evenodd; clip-rule:evenodd"
viewBox="0 0 378 204"
 xmlns:xlink="http://www.w3.org/1999/xlink">
 <defs>
  <style type="text/css">
   <![CDATA[
    .fil0 {fill:#56524A;fill-rule:nonzero}
   ]]>
  </style>
 </defs>
 <g id="Layer_x0020_1">
  <metadata id="CorelCorpID_0Corel-Layer"/>
  <path class="fil0" d="M376 42c-3,-3 -7,-5 -12,-5l-25 0c0,0 -1,0 -2,0l-2 -21c0,-9 -7,-16 -16,-16l-118 0c-5,0 -9,2 -12,6 -3,-4 -7,-6 -12,-6l-122 0c-8,0 -15,7 -15,16l0 22c-2,-1 -3,-1 -5,-1l-25 0c-3,0 -6,1 -8,3 -2,2 -2,5 -2,9l13 97c1,7 7,12 14,12l9 0 -6 42c0,1 0,2 1,3 1,1 2,1 3,1l11 0c2,0 3,-1 4,-3l10 -43 260 0 11 43c0,2 1,3 3,3l11 0c1,0 2,0 3,-1 1,-1 1,-2 1,-3l-5 -42 8 0c7,0 13,-5 14,-12l13 -97c0,-3 0,-5 -2,-7zm-329 71l0 -20 284 0 0 20c0,4 -2,6 -6,6l-272 0c-3,0 -6,-2 -6,-6zm154 -106l118 0c5,0 8,4 8,9l4 33 0 37 -138 0 0 -70c0,-5 3,-9 8,-9zm-146 0l122 0c5,0 8,4 8,9l0 70 -138 0 0 -70c0,-5 4,-9 8,-9zm-13 190l-4 0 5 -39 9 0 -10 39zm298 0l-4 0 -10 -39 9 0 5 39zm18 -52c0,3 -4,6 -7,6l-324 0c-3,0 -6,-3 -7,-6l-13 -97c0,-2 0,-3 1,-3 0,0 1,-1 2,-1l25 0c3,0 4,1 4,5l0 64c0,8 6,14 13,14l274 0c7,0 13,-6 13,-14l0 -64c0,-1 0,-2 0,-3 0,0 0,-1 0,-2 0,0 0,0 0,0l25 0c3,0 5,1 6,3 1,0 1,1 1,1l-13 97z"/>
 </g>
</svg>
