<?xml version="1.0" encoding="UTF-8"?>
<!DOCTYPE svg PUBLIC "-//W3C//DTD SVG 1.1//EN" "http://www.w3.org/Graphics/SVG/1.1/DTD/svg11.dtd">
<!-- Creator: CorelDRAW X8 -->
<svg xmlns="http://www.w3.org/2000/svg" xml:space="preserve" width="39.7176mm" height="27.8978mm" version="1.1" style="shape-rendering:geometricPrecision; text-rendering:geometricPrecision; image-rendering:optimizeQuality; fill-rule:evenodd; clip-rule:evenodd"
viewBox="0 0 400 281"
 xmlns:xlink="http://www.w3.org/1999/xlink">
 <defs>
  <style type="text/css">
   <![CDATA[
    .fil0 {fill:#56524A;fill-rule:nonzero}
   ]]>
  </style>
 </defs>
 <g id="Layer_x0020_1">
  <metadata id="CorelCorpID_0Corel-Layer"/>
  <g id="_2255391108368">
   <path class="fil0" d="M24 93l25 -9c3,-1 7,-1 10,1 3,1 5,4 7,8l22 42 -7 0c-4,1 -8,2 -10,4 -2,2 -3,4 -3,8l0 5c0,5 2,9 5,12 3,3 7,5 12,5l21 0 6 10 -27 0c-5,0 -9,2 -12,5 -3,3 -5,7 -5,11l0 60c0,3 1,6 2,8 2,3 4,5 7,6l13 7 -14 2c-4,1 -7,0 -10,-2 -3,-2 -5,-4 -6,-8l-45 -158c-1,-4 -1,-7 1,-10 2,-3 5,-6 8,-7zm28 0l-24 9c-2,0 -3,1 -4,2 0,1 0,2 0,4l34 120 0 -33c0,-7 3,-13 8,-18 1,-1 3,-2 4,-3 -1,-1 -3,-2 -4,-3 -5,-5 -8,-12 -8,-19l0 -5c0,-7 3,-11 6,-15 3,-2 6,-4 10,-5l-16 -30c-1,-2 -2,-3 -4,-4 0,0 -1,0 -2,0l0 0z"/>
   <path class="fil0" d="M19 2l20 -2 1 0c5,0 11,2 14,5 4,3 7,8 7,13l0 0c2,18 2,37 3,56 0,5 -2,10 -5,14 -4,4 -8,7 -14,8l-16 1c-5,1 -10,-1 -14,-4 -4,-4 -7,-9 -8,-14l-7 -56c0,-5 1,-10 5,-14 3,-4 8,-6 13,-7l1 0zm21 8l-21 1c-3,1 -5,2 -7,4 -2,2 -3,5 -2,7l0 1 7 55c0,3 2,5 4,7 2,2 5,3 7,3l16 -2c3,0 6,-2 7,-4 2,-2 3,-5 3,-8l-2 -55 0 0c0,-3 -2,-5 -4,-7 -2,-2 -5,-3 -7,-2l-1 0z"/>
   <path class="fil0" d="M225 171c1,-1 2,-2 3,-2l19 0c1,0 2,0 3,-1l1 0c27,8 54,16 80,25 5,1 9,4 11,8 2,5 3,10 1,14 0,1 0,1 0,2 -2,4 -5,8 -9,10 -4,2 -9,3 -14,2l-56 -12 0 -22c0,-4 -2,-8 -5,-11 -3,-3 -7,-5 -12,-5l-30 0 8 -8zm103 31l-57 -18c2,4 3,8 3,11l0 14 48 11c3,0 5,0 8,-1 1,-1 3,-3 4,-5 0,0 0,-1 0,-1 1,-3 0,-5 -1,-7 -1,-2 -2,-4 -5,-4l0 0z"/>
   <path class="fil0" d="M331 216l2 -2c2,-4 6,-7 11,-8 4,-1 9,0 13,2 12,8 23,15 35,22 4,3 6,7 7,11 1,4 1,9 -2,13 0,1 -1,3 -2,3 -3,4 -6,7 -11,8 -4,1 -8,0 -12,-2 -4,-3 -36,-25 -36,-25 -3,-3 -6,-6 -7,-10 -1,-4 0,-8 2,-12zm10 3l-2 3c-1,1 -1,3 -1,4 1,1 2,3 4,4l35 24c1,1 3,2 5,1 2,0 4,-1 5,-3 1,-1 1,-2 2,-3 1,-2 1,-4 1,-6 0,-2 -2,-4 -3,-5 -4,-3 -29,-18 -35,-21 -2,-2 -4,-2 -6,-1 -2,0 -4,1 -5,3z"/>
   <path class="fil0" d="M85 169l162 0c8,0 14,3 19,8 5,5 8,11 8,18l0 60c0,7 -3,13 -8,18 -5,5 -11,8 -19,8l-162 0c-8,0 -14,-3 -19,-8 -5,-5 -8,-11 -8,-18l0 -60c0,-7 3,-13 8,-18 5,-5 11,-8 19,-8zm162 10l-162 0c-5,0 -9,2 -12,5 -3,3 -5,7 -5,11l0 60c0,4 2,8 5,11 3,3 7,5 12,5l162 0c5,0 9,-2 12,-5 3,-3 5,-7 5,-11l0 -60c0,-4 -2,-8 -5,-11 -3,-3 -7,-5 -12,-5z"/>
   <path class="fil0" d="M84 126c41,-2 130,-1 164,-8 7,0 14,4 18,9 4,5 7,12 8,19l0 1 0 5c0,7 -3,14 -8,19 -5,4 -11,7 -19,7l-162 0c-8,0 -14,-3 -19,-7 -5,-5 -8,-12 -8,-19l0 -5c0,-7 3,-12 8,-16 4,-3 11,-5 18,-5zm164 2l-163 7c-6,0 -10,1 -13,4 -3,1 -4,4 -4,8l0 5c0,5 2,9 5,12 3,3 7,5 12,5l162 0c5,0 9,-2 12,-5 3,-3 5,-7 5,-12l0 -6c0,-5 -2,-9 -5,-13 -3,-3 -7,-5 -11,-5l0 0z"/>
  </g>
 </g>
</svg>
