<?xml version="1.0" encoding="UTF-8"?>
<!DOCTYPE svg PUBLIC "-//W3C//DTD SVG 1.1//EN" "http://www.w3.org/Graphics/SVG/1.1/DTD/svg11.dtd">
<!-- Creator: CorelDRAW X8 -->
<svg xmlns="http://www.w3.org/2000/svg" xml:space="preserve" width="21.7411mm" height="33.3602mm" version="1.1" style="shape-rendering:geometricPrecision; text-rendering:geometricPrecision; image-rendering:optimizeQuality; fill-rule:evenodd; clip-rule:evenodd"
viewBox="0 0 226 347"
 xmlns:xlink="http://www.w3.org/1999/xlink">
 <defs>
  <style type="text/css">
   <![CDATA[
    .fil0 {fill:#56524A;fill-rule:nonzero}
   ]]>
  </style>
 </defs>
 <g id="Layer_x0020_1">
  <metadata id="CorelCorpID_0Corel-Layer"/>
  <g id="_2255391113360">
   <path class="fil0" d="M13 0l200 0c4,0 7,1 10,4l0 0c2,2 3,5 3,9l0 321c0,4 -1,7 -3,10l0 0c-3,2 -6,3 -10,3l-200 0c-4,0 -7,-1 -9,-3l0 0c-3,-3 -4,-6 -4,-10l0 -321c0,-4 1,-7 4,-9l0 0c2,-3 5,-4 9,-4zm200 8l-200 0c-1,0 -3,1 -3,2l0 0c-1,0 -2,2 -2,3l0 321c0,2 1,3 2,4 0,1 2,1 3,1l200 0c2,0 3,0 4,-1 1,-1 1,-2 1,-4l0 -321c0,-1 0,-3 -1,-3 -1,-1 -2,-2 -4,-2z"/>
   <polygon class="fil0" points="119,271 223,271 223,279 119,279 "/>
   <polygon class="fil0" points="117,221 220,221 220,231 117,231 "/>
   <path class="fil0" d="M157 247l23 0c1,0 2,0 3,1 1,1 2,2 2,4 0,1 -1,2 -2,3 -1,1 -2,1 -3,1l-23 0c-1,0 -2,0 -3,-1 -1,-1 -2,-2 -2,-3 0,-2 1,-3 2,-4 1,-1 2,-1 3,-1z"/>
   <path class="fil0" d="M157 293l23 0c1,0 2,1 3,2 1,0 2,2 2,3 0,1 -1,3 -2,3 -1,1 -2,2 -3,2l-23 0c-1,0 -2,-1 -3,-2 -1,0 -2,-2 -2,-3 0,-1 1,-3 2,-3 1,-1 2,-2 3,-2z"/>
   <path class="fil0" d="M93 141l0 -23c0,-1 1,-2 2,-3 1,-1 2,-2 3,-2 2,0 3,1 4,2 1,1 1,2 1,3l0 23c0,1 0,3 -1,4 -1,0 -2,1 -4,1 -1,0 -2,-1 -3,-1 -1,-1 -2,-3 -2,-4z"/>
   <polygon class="fil0" points="8,318 222,318 222,326 8,326 "/>
   <polygon class="fil0" points="119,7 119,323 110,323 110,7 "/>
   <path class="fil0" d="M127 141l0 -23c0,-1 0,-2 1,-3 1,-1 2,-2 3,-2 2,0 3,1 4,2 1,1 1,2 1,3l0 23c0,1 0,3 -1,4 -1,0 -2,1 -4,1 -1,0 -2,-1 -3,-1 -1,-1 -1,-3 -1,-4z"/>
  </g>
 </g>
</svg>
