<?xml version="1.0" encoding="UTF-8"?>
<!DOCTYPE svg PUBLIC "-//W3C//DTD SVG 1.1//EN" "http://www.w3.org/Graphics/SVG/1.1/DTD/svg11.dtd">
<!-- Creator: CorelDRAW X8 -->
<svg xmlns="http://www.w3.org/2000/svg" xml:space="preserve" width="35.2141mm" height="24.9976mm" version="1.1" style="shape-rendering:geometricPrecision; text-rendering:geometricPrecision; image-rendering:optimizeQuality; fill-rule:evenodd; clip-rule:evenodd"
viewBox="0 0 1936 1374"
 xmlns:xlink="http://www.w3.org/1999/xlink">
 <defs>
  <style type="text/css">
   <![CDATA[
    .fil0 {fill:#56524A;fill-rule:nonzero}
   ]]>
  </style>
 </defs>
 <g id="Layer_x0020_1">
  <metadata id="CorelCorpID_0Corel-Layer"/>
  <g id="_2255391075088">
   <path class="fil0" d="M211 880l1534 0 0 429 -1557 0 0 -429 23 0zm1489 46l-1466 0 0 338 1466 0 0 -338z"/>
   <path class="fil0" d="M179 876c15,1 29,8 39,18 10,11 16,25 16,40l0 382c0,16 -7,31 -17,41 -11,11 -25,17 -41,17l-118 0c-16,0 -31,-6 -41,-17 -10,-10 -17,-25 -17,-41l0 -382c0,-15 6,-29 16,-40 10,-10 23,-17 38,-18 33,-2 93,-2 125,0zm6 49c-2,-2 -5,-3 -8,-4l-121 0c-3,1 -5,2 -7,4 -2,2 -4,6 -4,9l0 382c0,4 2,7 4,9 2,2 6,4 9,4l118 0c3,0 6,-2 9,-4 2,-2 3,-5 3,-9l0 -382c0,-3 -1,-7 -3,-9z"/>
   <path class="fil0" d="M1881 876c16,1 29,8 39,18 10,11 16,25 16,40l0 382c0,16 -7,31 -17,41 -11,11 -25,17 -41,17l-118 0c-16,0 -30,-6 -41,-17 -10,-10 -17,-25 -17,-41l0 -382c0,-15 6,-29 16,-40 10,-10 23,-17 39,-18 32,-2 92,-2 124,0zm6 49c-2,-2 -4,-3 -7,-4l-122 0c-2,1 -5,2 -7,4 -2,2 -4,6 -4,9l0 382c0,4 2,7 4,9l0 0c2,3 6,4 9,4l118 0c3,0 7,-2 9,-4 2,-2 4,-5 4,-9l0 -382c0,-3 -2,-7 -4,-9z"/>
   <path class="fil0" d="M1821 128l23 0 0 436 -1789 0 0 -435c581,0 1179,14 1758,0l5 -1 3 0zm-22 391l0 -345 -1699 0 0 345 1699 0z"/>
   <path class="fil0" d="M373 281l406 0c46,0 98,24 138,59 38,34 65,80 65,125l0 100 -823 0 0 -100c0,-45 29,-90 69,-124 43,-35 99,-60 145,-60zm406 45l-406 0c-36,0 -80,21 -116,50 -30,26 -53,58 -53,89l0 54 732 0 0 -54c0,-32 -20,-65 -50,-91 -31,-28 -72,-48 -107,-48z"/>
   <path class="fil0" d="M1162 281l405 0c46,0 98,24 138,59 38,34 65,80 65,125l0 100 -823 0 0 -100c0,-45 29,-90 70,-124 42,-35 98,-60 145,-60zm405 45l-405 0c-36,0 -81,21 -116,50 -31,26 -54,58 -54,89l0 55 733 0 0 -55c0,-32 -21,-65 -50,-91 -32,-28 -73,-48 -108,-48z"/>
   <path class="fil0" d="M78 0l1733 0c16,0 31,7 41,17 11,11 17,25 17,41l0 58c0,16 -6,30 -17,41 -10,10 -25,17 -41,17l-1733 0c-16,0 -31,-7 -42,-17l0 0c-10,-11 -17,-25 -17,-41l0 -58c0,-16 7,-30 17,-41 11,-10 26,-17 42,-17zm1733 45l-1733 0c-4,0 -7,2 -10,4 -2,3 -3,6 -3,9l0 58c0,3 1,6 3,9l0 0c3,2 6,4 10,4l1733 0c4,0 7,-2 9,-4 3,-3 4,-6 4,-9l0 -58c0,-3 -1,-6 -4,-9 -2,-2 -5,-4 -9,-4z"/>
   <path class="fil0" d="M104 519l888 0 0 1 733 0 0 -1 107 0c28,0 54,12 73,31 19,19 31,45 31,73l0 249c0,13 -6,26 -15,35 -9,9 -21,14 -35,14l-1836 0c-14,0 -26,-5 -35,-14 -9,-9 -15,-22 -15,-35l0 -249c0,-28 12,-54 31,-73 19,-19 45,-31 73,-31zm77 46l-77 0c-16,0 -31,6 -41,17 -11,10 -18,25 -18,41l0 249c0,1 1,2 2,3 0,1 1,1 3,1l1836 0c1,0 3,0 3,-1 1,-1 2,-2 2,-3l0 -249c0,-16 -7,-31 -18,-41 -10,-11 -25,-17 -41,-17l-62 0 0 0 -823 0 0 0 -766 0z"/>
  </g>
 </g>
</svg>
