<?xml version="1.0" encoding="UTF-8"?>
<!DOCTYPE svg PUBLIC "-//W3C//DTD SVG 1.1//EN" "http://www.w3.org/Graphics/SVG/1.1/DTD/svg11.dtd">
<!-- Creator: CorelDRAW X8 -->
<svg xmlns="http://www.w3.org/2000/svg" xml:space="preserve" width="19.9797mm" height="33.3897mm" version="1.1" style="shape-rendering:geometricPrecision; text-rendering:geometricPrecision; image-rendering:optimizeQuality; fill-rule:evenodd; clip-rule:evenodd"
viewBox="0 0 186 311"
 xmlns:xlink="http://www.w3.org/1999/xlink">
 <defs>
  <style type="text/css">
   <![CDATA[
    .fil0 {fill:#56524A;fill-rule:nonzero}
   ]]>
  </style>
 </defs>
 <g id="Layer_x0020_1">
  <metadata id="CorelCorpID_0Corel-Layer"/>
  <g id="_2255391109072">
   <path class="fil0" d="M58 0l70 0c1,0 1,0 1,0 7,0 13,3 17,7 4,4 7,10 7,17 -4,12 -4,98 -5,118 0,3 -1,6 -3,8 -2,2 -5,4 -8,4l-88 0c-3,0 -6,-2 -8,-4 -2,-2 -3,-5 -3,-8 -1,-20 -1,-106 -4,-118 0,-7 2,-13 7,-17 4,-4 10,-7 16,-7 0,0 1,0 1,0zm70 9l-71 0c-4,0 -7,2 -10,5 -3,2 -4,6 -4,10l0 0 4 118c0,1 0,1 1,2 0,0 1,1 1,1l88 0c1,0 1,-1 2,-1 0,-1 1,-1 1,-2l4 -118c0,-4 -2,-8 -4,-10 -3,-3 -7,-5 -11,-5l-1 0z"/>
   <path class="fil0" d="M38 168c18,-4 37,-6 56,-6 18,0 37,2 54,6 3,-19 5,-40 8,-59 1,-4 3,-8 6,-10 3,-2 7,-3 11,-2 0,0 1,0 1,0 4,1 7,3 9,6 3,3 4,7 3,11 -6,22 -10,45 -15,68 -1,3 -2,7 -5,9 -2,3 -5,4 -10,3 -1,0 -2,0 -2,0 -1,1 -1,2 -2,3 -1,1 -3,1 -5,1l-108 0c-2,0 -3,0 -4,-1 -1,-1 -2,-2 -2,-4 -1,1 -2,1 -3,1 -5,1 -8,0 -10,-3 -3,-2 -4,-6 -5,-9 -5,-23 -10,-46 -15,-68 0,-4 1,-8 3,-11 2,-3 5,-5 9,-6 0,0 1,0 1,0 4,-1 8,0 11,2 3,2 5,6 6,10 3,19 5,40 8,59l0 0zm56 2c-18,0 -37,2 -53,6l0 14 105 0 0 -14c-17,-4 -34,-6 -52,-6zm-80 -65l-1 0c-1,0 -3,1 -4,3 -1,1 -1,3 -1,5l15 67c1,2 1,4 2,6 1,0 2,1 4,0 1,0 2,-1 2,-1 1,-2 1,-4 1,-6l-10 -69c0,-2 -1,-3 -3,-4 -1,-1 -3,-2 -5,-1zm158 0l0 0c-2,-1 -4,0 -5,1 -2,1 -3,2 -3,4l-9 69c-1,2 -1,4 0,6 0,0 1,1 2,1 2,1 3,0 4,0 1,-2 1,-4 2,-6l15 -67c0,-2 0,-4 -1,-5 -1,-2 -3,-3 -4,-3l-1 0z"/>
   <path class="fil0" d="M87 190l13 0c1,0 2,1 3,2l0 0c1,1 2,2 2,3l0 80c0,1 -1,2 -2,3 -1,1 -2,1 -3,1l-13 0c-2,0 -3,0 -4,-1 -1,-1 -1,-2 -1,-3l0 -80c0,-1 0,-2 1,-3 1,-1 2,-2 4,-2zm9 9l-5 0 0 72 5 0 0 -72z"/>
   <path class="fil0" d="M27 285l0 -8c0,-2 1,-3 2,-4l0 -1c1,-1 3,-1 5,-1l119 0c2,0 3,0 4,1l0 1c2,1 2,2 2,4l0 8c0,2 0,3 -2,5 -1,1 -2,2 -4,2l-119 0c-2,0 -4,-1 -5,-2 -1,-2 -2,-3 -2,-5zm9 -6l0 4 114 0 0 -4 -114 0z"/>
   <path class="fil0" d="M37 292l7 0c3,0 5,1 7,2l0 0c2,2 3,5 3,7 0,3 -1,5 -3,7l0 0c-2,2 -4,3 -7,3l-7 0c-3,0 -5,-1 -7,-3l0 0c-2,-2 -3,-4 -3,-7 0,-2 1,-5 3,-7l0 0c2,-1 4,-2 7,-2zm7 9l-7 0c0,0 -1,0 -1,0l0 0c0,0 0,0 0,0 0,0 0,1 0,1l0 0c0,0 1,0 1,0l7 0c1,0 1,0 1,0l0 0c0,0 0,-1 0,-1 0,0 0,0 0,0l0 0c0,0 0,0 -1,0z"/>
   <path class="fil0" d="M142 292l8 0c2,0 5,1 7,2 1,2 2,5 2,7 0,3 -1,5 -2,7 -2,2 -5,3 -7,3l-8 0c-3,0 -5,-1 -7,-3 -1,-2 -3,-4 -3,-7 0,-2 2,-5 3,-7 2,-1 4,-2 7,-2zm8 9l-8 0c0,0 0,0 0,0 -1,0 -1,0 -1,0 0,0 0,1 1,1 0,0 0,0 0,0l8 0c0,0 0,0 0,0 0,0 0,-1 0,-1 0,0 0,0 0,0 0,0 0,0 0,0z"/>
   <path class="fil0" d="M108 149l0 21 -29 0 0 -25 29 0 0 4zm-9 12l0 -7 -11 0 0 7 11 0z"/>
  </g>
 </g>
</svg>
