<?xml version="1.0" encoding="UTF-8"?>
<!DOCTYPE svg PUBLIC "-//W3C//DTD SVG 1.1//EN" "http://www.w3.org/Graphics/SVG/1.1/DTD/svg11.dtd">
<!-- Creator: CorelDRAW X8 -->
<svg xmlns="http://www.w3.org/2000/svg" xml:space="preserve" width="48.795mm" height="23.3702mm" version="1.1" style="shape-rendering:geometricPrecision; text-rendering:geometricPrecision; image-rendering:optimizeQuality; fill-rule:evenodd; clip-rule:evenodd"
viewBox="0 0 955 458"
 xmlns:xlink="http://www.w3.org/1999/xlink">
 <defs>
  <style type="text/css">
   <![CDATA[
    .fil1 {fill:none;fill-rule:nonzero}
    .fil0 {fill:#56524A;fill-rule:nonzero}
   ]]>
  </style>
 </defs>
 <g id="Layer_x0020_1">
  <metadata id="CorelCorpID_0Corel-Layer"/>
  <g id="_2255370930064">
   <path class="fil0" d="M357 344l488 0c8,0 15,3 20,8 5,6 9,13 9,21l0 55c0,8 -4,15 -9,21 -5,5 -12,9 -20,9l-488 0 0 -19 1 0c2,0 5,-1 7,-3 2,-2 3,-5 3,-8l0 -55c0,-3 -1,-6 -3,-8 -2,-2 -5,-3 -7,-3l-1 0 0 -18zm488 18l-461 0c2,3 2,7 2,11l0 55c0,4 0,8 -2,11l461 0c3,0 5,-1 7,-3 2,-2 3,-5 3,-8l0 -55c0,-3 -1,-6 -3,-8 -2,-2 -4,-3 -7,-3z"/>
   <path class="fil0" d="M30 246l327 0c8,0 16,3 21,8 6,6 9,13 9,21l0 56c0,8 -3,16 -9,21l0 0 0 0c6,6 9,13 9,21l0 55c0,8 -3,15 -9,21l0 0c-5,5 -12,9 -21,9l-327 0c-9,0 -16,-4 -21,-9 -6,-6 -9,-13 -9,-21l0 -55c0,-8 3,-15 9,-21l0 0 0 0c-6,-5 -9,-13 -9,-21l0 -56c0,-8 3,-15 9,-21 5,-5 13,-8 21,-8zm327 18l-327 0c-3,0 -6,1 -8,3 -2,2 -4,5 -4,8l0 56c0,3 2,6 4,8 2,2 5,3 8,3l327 0c3,0 6,-1 8,-3 2,-2 4,-5 4,-8l0 -56c0,-3 -2,-6 -4,-8 -2,-2 -5,-3 -8,-3zm0 98l-327 0c-3,0 -6,1 -8,3 -2,2 -4,5 -4,8l0 55c0,3 2,6 4,8 2,2 5,3 8,3l327 0c3,0 6,-1 8,-3 2,-2 4,-5 4,-8l0 -55c0,-3 -2,-6 -4,-8 -2,-2 -5,-3 -8,-3z"/>
   <path class="fil0" d="M928 134l-43 0c-4,0 -8,1 -11,2l0 -109c0,-15 -13,-27 -28,-27l-720 0c-16,0 -28,12 -28,27l0 109c-3,-1 -7,-2 -11,-2l-43 0c-15,0 -27,12 -27,27l0 99 0 0 0 -1 0 0 0 0 0 0 0 0 1 0 0 0 0 0 0 0 0 0 0 -1 0 0 0 0 0 0 1 0c0,0 0,0 1,-1l0 0 0 0 0 0 0 0 0 0 1 0 0 0 0 0 0 0 0 0 0 0 0 0 0 0 0 0 0 0 0 0 0 0 0 0 0 0 0 0 0 0 0 0 0 0 0 0 0 0 0 0 0 0 0 0 0 0 1 0 0 -1 0 0 0 0 0 0 0 0 0 0 0 0 0 0 0 0 0 0 0 0 0 0 0 0 0 0 0 0 1 0 0 0 0 0 0 0 1 0 0 0 0 0 0 0 0 -1 1 0 0 0 0 0 0 0 0 0 0 0 1 0 0 0 0 0 0 0 0 0 0 0 0 0 1 0 0 0 0 0 0 0 0 0 0 0 1 0 0 0 0 0 0 0 0 0 0 0 0 0 1 0 0 0 0 0 0 0 0 0 0 0 1 0 0 0 0 0 3 0 0 -94c0,-6 5,-11 11,-11l43 0c6,0 11,5 11,11l0 94 259 0 0 0 1 0 0 0 0 0 0 0 0 0 1 0 0 0 0 0 0 0 1 0 0 0 0 0 0 0 1 0 0 0 0 0 0 0 0 0 0 0 1 0 0 0 0 0 1 0 0 1 0 0 0 0 1 0 0 0 0 0 0 0 0 0 0 0 1 0 0 0 0 0 0 0 0 0 1 1 0 0 0 0 0 0 0 0 1 0 0 0 0 0 0 0 0 0 0 0 1 1 0 0 0 0 0 0 0 0 0 0 1 0 0 0 0 1 0 0 0 0 1 0 0 0 0 0 0 1 1 0 0 0 0 0 0 0 0 0 0 0 0 0 0 1 1 0 0 0 0 0 0 0 0 0 0 1 1 0 0 0 0 0c0,0 0,0 0,1l0 0 1 0 0 0 0 0 483 0 0 81 -484 0 0 0 0 1 -1 0 0 0 0 0 0 0 0 0 0 0 0 1 0 0 0 0 0 0 0 0 0 0 -1 0 0 0 0 0 0 0 0 0 0 0 0 0 0 0 0 0 0 0 0 0 0 0 0 0 0 0 0 1 0 0 0 0 0 0 0 0 0 0 0 0 0 0 0 0 -1 0 0 0 0 0 0 0 0 0 0 0 0 0 0 0 0 0 0 0 0 0 0 1 -1 0 0 0 0 0 0 0 0 0 0 0c-1,0 -1,0 -1,1l0 0 -1 0 0 0 0 0 0 0 0 0 0 0 -1 0 0 1 0 0 0 0 0 0 0 0 -1 0 0 0 0 0 0 0 0 0 -1 0 0 0 0 0 0 1 0 0 0 0 -1 0 0 0 0 0 0 0 -1 0 0 0 0 0 0 0 0 0 0 0 -1 0 0 0 0 0 0 0 0 0 0 0 -1 0 0 0 0 0 0 0 0 0 -1 1 0 0 0 0 0 0 0 0 -1 0 0 0 0 0 0 0 0 0 -1 0 0 0 -259 0 0 1 259 0 1 0 0 0 0 0 0 0 0 0 1 0 0 0 0 0 0 0 0 0 1 0 0 0 0 0 0 0 0 0 1 0 0 0 0 0 0 0 0 0 1 0 0 0 0 0 0 0 0 0 0 0 1 1 0 0 0 0 0 0 1 0 0 0 0 0 0 0 0 0 0 0 1 0 0 0 0 0 0 0 0 0 1 0 0 1 0 0 0 0 0 0 0 0 1 0 0 0 0 0 0 0 0 0 0 0 1 0 0 0 0 1 0 0 0 0 0 0 0 0 1 0 0 0 0 0 0 0 0 1 0 0 1 0 0 0 0 0 0 0 0 0 0 0 0 0 1 1 0 0 0 0 0 0 0 0 0 0 0 0 1 0 0 1 0 0 0 0 0 0 0 0 0 0 1 0 0 0 0 1 0 0 0 0 0 0 0 0 0 0 0 1 0 0 1 0 483 0 0 69c0,15 13,27 28,27l43 0c15,0 27,-12 27,-27l0 -269c0,-15 -12,-27 -27,-27zm-895 219l0 -1 -3 0 0 0 0 0 -1 0 0 0 0 0 0 0 0 0 0 0 -1 0 0 0 0 0 0 0 0 0 0 0 0 0 -1 -1 0 0 0 0 0 0 0 0 0 0 -1 0 0 0 0 0 0 0 0 0 0 0 0 0 -1 0 0 0 0 0 0 0 0 0 0 0 -1 0 0 0 0 0 0 0 0 0 0 0 0 0 -1 0 0 0 0 -1 0 0 0 0 0 0 -1 0 0 0 0 0 0 0 0 0 0 0 0 0 -1 0 0 0 0 0 0 0 0 0 0 0 0 -1 -1 0 0 0 0 0 0 0 0 0 0 0 0 0 0 0 -1 0 0 0 0 0 0 0 0 -1 0 0 0 0 -1 0 0 0 0 0 0 0 0 0 0 0 0 0 -1 -1 0 0 0 0 0 0 0 0 0 0 0 0 0 0 0 11 0 -1 0 0 0 0 0 0 0 0 0 0 0 0 0 0 1 0 0 0 0 0 0 -1 0 0 0 0 0 0 0 0 1 0 0 0 0 0 0 0 0 0 0 0 0 0 0 -1 1 0 0 0 0 0 0 0 0 0 0 0 0 0 1 0 0 0 0 0 0 0 0 0 0 0 0 0 1 -1 0 0 0 0 0 0 0 0 0 0 0 0 1 0 0 0 0 0 0 0 0 0 0 0 0 0 1 0 0 0 0 0 0 0 0 -1 0 0 1 0 0 0 0 0 0 0 0 0 0 0 1 0 0 0 0 0 0 0 0 0 0 0 0 0 1 0 0 0 0 0 0 0 0 0 0 0 1 0 0 0 0 0 0 0 0 0 0 0 0 0 1 0 0 0 0 0 0 0 0 0 0 0 1 0 3 0zm824 -326l0 220 -236 0 0 -231 225 0c6,0 11,5 11,11zm-489 220l0 -231 236 0 0 231 -236 0zm-253 -220c0,-6 4,-11 11,-11l225 0 0 231 -236 0 0 -220zm824 403c0,6 -5,11 -11,11l-43 0c-6,0 -11,-5 -11,-11l0 -269c0,-6 5,-11 11,-11l43 0c6,0 11,5 11,11l0 269z"/>
   <path class="fil1" d="M357 353l0 0 488 0c11,0 19,9 19,20l0 55c0,5 -1,9 -4,13 -2,-4 -3,-7 -3,-11l0 -69 -483 0 -1 0 0 0 0 -1 0 0 0 0 0 0 0 0 0 0 0 -1 0 0 -1 0 0 0 0 0 0 0 0 0 0 0 0 -1 -1 0 0 0 0 0 0 0 0 0 0 0 0 0 -1 -1 0 0 0 0 0 0 0 0 0 0 0 0 -1 0 0 0 0 -1 0 0 0 0 0 0 -1 0 0 0 0 0 0 0 0 0 0 -1 0 0 -1 0 0 0 0 0 0 0 0 0 0 0 -1 0 0 0 0 0 0 0 0 0 0 -1 -1 0 0 0 0 0 0 0 0 0 -1 0 0 0 0 0 0 0 0 0 0 0 -1 0 0 0 0 0 0 0 -1 -1 0 0 0 0 0 0 0 0 0 0 -1 0 0 0 0 0 0 0 0 0 -1 0 0 0 0 0 0 0 0 0 -1 0 0 0 0 0 0 0 0 0 0 0 -1 0 0 0 0 0 0 0 0 0 0 0 0 0 -1 0"/>
  </g>
 </g>
</svg>
