<?xml version="1.0" encoding="UTF-8"?>
<!DOCTYPE svg PUBLIC "-//W3C//DTD SVG 1.1//EN" "http://www.w3.org/Graphics/SVG/1.1/DTD/svg11.dtd">
<!-- Creator: CorelDRAW X8 -->
<svg xmlns="http://www.w3.org/2000/svg" xml:space="preserve" width="10.1138mm" height="9.0706mm" version="1.1" style="shape-rendering:geometricPrecision; text-rendering:geometricPrecision; image-rendering:optimizeQuality; fill-rule:evenodd; clip-rule:evenodd"
viewBox="0 0 218 196"
 xmlns:xlink="http://www.w3.org/1999/xlink">
 <defs>
  <style type="text/css">
   <![CDATA[
    .fil0 {fill:#56524A;fill-rule:nonzero}
   ]]>
  </style>
 </defs>
 <g id="Layer_x0020_1">
  <metadata id="CorelCorpID_0Corel-Layer"/>
  <g id="_1936689593840">
   <path class="fil0" d="M176 0l-134 0c-1,0 -2,1 -2,2l0 80c0,1 1,2 2,2l53 0 0 14 -9 0c-2,0 -3,2 -3,3 0,1 1,2 3,2l47 0c1,0 2,-1 2,-2 0,-1 -1,-3 -2,-3l-9 0 0 -14 52 0c1,0 2,-1 2,-2l0 -80c0,-1 -1,-2 -2,-2zm-57 98l-19 0 0 -14 19 0 0 14zm55 -18l-129 0 0 -75 129 0 0 75z"/>
   <path class="fil0" d="M52 75l114 0c2,0 3,-2 3,-3l0 -60c0,-1 -1,-2 -3,-2l-114 0c-1,0 -2,1 -2,2l0 60c0,1 1,3 2,3zm3 -60l109 0 0 55 -109 0 0 -55z"/>
   <path class="fil0" d="M57 132l-18 0c-3,0 -6,3 -6,6 0,3 3,5 6,5l18 0c3,0 6,-2 6,-5 0,-3 -3,-6 -6,-6zm0 6l-18 0c-1,0 -1,0 -1,0 0,-1 0,-1 1,-1l18 0c1,0 1,0 1,1 0,0 0,0 -1,0z"/>
   <path class="fil0" d="M180 132l-19 0c-3,0 -5,3 -5,6 0,3 2,5 5,5l19 0c3,0 5,-2 5,-5 0,-3 -2,-6 -5,-6zm0 6l-19 0c0,0 0,0 0,0 0,-1 0,-1 0,-1l19 0c0,0 0,0 0,1 0,0 0,0 0,0z"/>
   <path class="fil0" d="M210 101l-202 0c-4,0 -8,4 -8,8l0 57c0,5 4,9 8,9l2 0 -3 18c0,1 0,2 0,2 1,1 2,1 2,1l8 0c1,0 2,-1 2,-2l7 -19 167 0 7 19c0,1 1,2 2,2l7 0c1,0 2,0 2,-1 1,0 1,-1 1,-2l-4 -18 2 0c5,0 8,-4 8,-9l0 -57c0,-4 -3,-8 -8,-8zm-127 39l52 0 0 30 -52 0 0 -30zm52 -5l-52 0 0 -29 52 0 0 29zm-130 31l0 -57c0,-2 1,-3 3,-3l70 0 0 64 -70 0c-2,0 -3,-2 -3,-4zm10 25l-3 0 3 -16 6 0 -6 16zm191 0l-2 0 -6 -16 5 0 3 16zm8 -25c0,2 -2,4 -4,4l-70 0 0 -64 70 0c2,0 4,1 4,3l0 57z"/>
  </g>
 </g>
</svg>
