<?xml version="1.0" encoding="UTF-8"?>
<!DOCTYPE svg PUBLIC "-//W3C//DTD SVG 1.1//EN" "http://www.w3.org/Graphics/SVG/1.1/DTD/svg11.dtd">
<!-- Creator: CorelDRAW X8 -->
<svg xmlns="http://www.w3.org/2000/svg" xml:space="preserve" width="34.736mm" height="26.9408mm" version="1.1" style="shape-rendering:geometricPrecision; text-rendering:geometricPrecision; image-rendering:optimizeQuality; fill-rule:evenodd; clip-rule:evenodd"
viewBox="0 0 814 631"
 xmlns:xlink="http://www.w3.org/1999/xlink">
 <defs>
  <style type="text/css">
   <![CDATA[
    .fil0 {fill:#56524A;fill-rule:nonzero}
   ]]>
  </style>
 </defs>
 <g id="Layer_x0020_1">
  <metadata id="CorelCorpID_0Corel-Layer"/>
  <g id="_2255391113584">
   <path class="fil0" d="M477 555l-66 0c-6,0 -12,-4 -15,-10l-18 -56c-2,-3 -1,-7 1,-11 2,-4 6,-6 11,-6l109 0c4,0 9,2 11,6 2,4 2,8 0,12l-17 54c-3,7 -9,11 -16,11zm-63 -20l61 0 14 -43 -89 0 14 43z"/>
   <path class="fil0" d="M358 287l-37 0c-7,0 -14,-5 -17,-11l-1 -2 -14 -75c-1,-4 -1,-8 1,-11 3,-4 7,-7 12,-7l75 0c5,0 9,3 12,6 2,4 2,8 1,12l-15 77c-3,6 -10,11 -17,11zm-48 -86l12 66 35 0 12 -66 -59 0z"/>
   <path class="fil0" d="M789 0l-764 0c-20,0 -25,5 -25,25l0 504c0,20 5,25 25,25l1 0 0 67c0,6 5,10 11,10l19 0c4,0 8,-3 9,-8l14 -69 656 0 13 69c1,5 5,8 10,8l19 0c6,0 10,-4 10,-10l0 -67 2 0c19,0 25,-5 25,-25l0 -504c0,-20 -6,-25 -25,-25zm-504 287l244 0 0 247 -244 0 0 -247zm244 -20l-244 0 0 -247 244 0 0 247zm-509 267c0,-2 0,-4 0,-5l0 -504c0,-1 0,-3 0,-5 2,0 4,0 5,0l240 0 0 514 -240 0c-1,0 -3,0 -5,0zm27 77l0 0 0 -57 12 0 -12 57zm720 0l0 0 -12 -57 12 0 0 57zm27 -82c0,1 0,3 0,5 -2,0 -4,0 -5,0l-240 0 0 -514 240 0c1,0 3,0 5,0 0,2 0,4 0,5l0 504z"/>
   <path class="fil0" d="M142 338c12,0 22,-10 22,-22l0 -78c0,-12 -10,-22 -22,-22 -12,0 -22,10 -22,22l0 78c0,12 10,22 22,22zm-1 -100c0,-1 0,-2 1,-2 1,0 2,1 2,2l0 78c0,2 -3,2 -3,0l0 -78z"/>
   <path class="fil0" d="M672 216c-13,0 -22,10 -22,22l0 78c0,12 9,22 22,22 12,0 21,-10 21,-22l0 -78c0,-12 -9,-22 -21,-22zm1 100c0,2 -3,2 -3,0l0 -78c0,-1 1,-2 2,-2 1,0 1,1 1,2l0 78z"/>
  </g>
 </g>
</svg>
