<?xml version="1.0" encoding="UTF-8"?>
<!DOCTYPE svg PUBLIC "-//W3C//DTD SVG 1.1//EN" "http://www.w3.org/Graphics/SVG/1.1/DTD/svg11.dtd">
<!-- Creator: CorelDRAW X8 -->
<svg xmlns="http://www.w3.org/2000/svg" xml:space="preserve" width="34.8537mm" height="32.7915mm" version="1.1" style="shape-rendering:geometricPrecision; text-rendering:geometricPrecision; image-rendering:optimizeQuality; fill-rule:evenodd; clip-rule:evenodd"
viewBox="0 0 19386 18239"
 xmlns:xlink="http://www.w3.org/1999/xlink">
 <defs>
  <style type="text/css">
   <![CDATA[
    .fil0 {fill:#56524A;fill-rule:nonzero}
   ]]>
  </style>
 </defs>
 <g id="Layer_x0020_1">
  <metadata id="CorelCorpID_0Corel-Layer"/>
  <g id="_2255391112016">
   <g>
    <path class="fil0" d="M6162 1l12029 0c111,0 213,46 286,119 75,74 121,177 121,287l0 7974c0,110 -47,212 -121,286 -74,73 -176,120 -286,120l-3302 0 0 -408c0,-1865 -654,-3049 -1490,-3559 -313,-190 -652,-286 -990,-286 -339,0 -678,96 -991,286 -836,510 -1490,1694 -1490,3559l0 408 -3766 0c-110,0 -212,-46 -286,-120 -74,-73 -121,-175 -121,-286l0 -7974c0,-112 46,-213 120,-287 74,-73 176,-119 287,-119zm11996 440l-11963 0 0 7906 3293 0c8,-2019 752,-3322 1702,-3901 384,-235 801,-352 1219,-352 417,0 834,117 1218,352 951,579 1694,1882 1702,3901l2829 0 0 -7906z"/>
    <path class="fil0" d="M588 8371l9339 0 0 1451 -9339 0c-161,0 -309,-67 -415,-173 -107,-108 -173,-255 -173,-416l0 -274c0,-162 66,-309 173,-415 106,-107 253,-173 415,-173zm8901 438l-8901 0c-41,0 -78,17 -105,44 -28,28 -45,65 -45,106l0 274c0,42 17,79 44,106 28,27 65,44 106,44l8901 0 0 -574zm5620 -438l3689 0c162,0 309,66 415,173 107,106 173,254 173,415l0 274c0,161 -66,308 -173,415 -106,107 -253,174 -415,174l-3908 0 0 -1451 219 0zm3689 438l-3470 0 0 574 3470 0c41,0 78,-17 106,-44 27,-27 44,-64 44,-106l0 -274c0,-41 -17,-78 -44,-105 -28,-28 -65,-45 -106,-45z"/>
    <path class="fil0" d="M17357 17948l0 -8218c0,-81 33,-154 86,-207 53,-52 127,-85 206,-85l662 0c80,0 152,33 205,85 54,54 87,127 87,207l0 8218c0,79 -34,153 -86,205 -54,53 -127,86 -206,86l-662 0c-79,0 -152,-32 -205,-85l-1 -1c-53,-52 -86,-125 -86,-205zm438 -8072l0 7925 370 0 0 -7925 -370 0z"/>
    <path class="fil0" d="M1142 9406l6086 0c112,0 213,46 287,120 74,73 120,176 120,287l0 8008c0,111 -46,212 -120,286l-1 1c-73,73 -175,120 -286,120l-6086 0c-111,0 -213,-46 -287,-120 -73,-74 -120,-176 -120,-287l0 -8008c0,-111 46,-213 120,-287l1 0c73,-74 175,-120 286,-120zm6053 440l-6019 0 0 7941 6019 0 0 -7941z"/>
    <path class="fil0" d="M15328 8379l0 1905c0,153 -63,292 -165,394 -101,100 -241,163 -394,163l-4720 0c-153,0 -293,-63 -395,-163 -101,-101 -165,-241 -165,-394l0 -1905c0,-2035 746,-3347 1701,-3929 384,-233 801,-350 1219,-350 417,0 834,117 1218,350 955,582 1701,1894 1701,3929zm-438 1905l0 -1905c0,-1863 -654,-3046 -1491,-3555 -312,-191 -652,-286 -990,-286 -339,0 -678,95 -991,286 -837,509 -1491,1692 -1491,3555l0 1905c0,33 14,63 35,84 22,21 53,35 87,35l4720 0c34,0 64,-14 86,-35 21,-21 35,-51 35,-84z"/>
    <path class="fil0" d="M9687 11645c881,-196 1815,-297 2746,-297 916,0 1833,98 2699,297 74,18 146,53 201,106 61,61 100,140 100,236l0 834c0,95 -41,182 -105,245 -63,62 -150,102 -245,102l-5349 0c-94,0 -182,-39 -245,-101 -64,-63 -105,-150 -105,-246l0 -834c0,-97 39,-176 100,-236 55,-54 128,-89 203,-106zm2746 142c-890,0 -1777,93 -2610,276l0 667 5172 0 0 -667c-819,-186 -1689,-276 -2562,-276z"/>
    <path class="fil0" d="M11752 10540l1313 0c95,0 182,39 246,102 63,63 103,150 103,245l0 567c0,95 -40,182 -103,246 -64,62 -151,102 -246,102l-1313 0c-95,0 -182,-40 -245,-102 -64,-63 -103,-150 -103,-246l0 -567c0,-95 39,-182 103,-245 63,-63 150,-102 245,-102zm1223 438l-1133 0 0 385 1133 0 0 -385z"/>
    <path class="fil0" d="M12096 12722l626 0c71,0 136,28 181,74 38,39 62,91 62,147l0 3546c0,56 -25,109 -64,147 -45,45 -109,74 -179,74l-626 0c-72,0 -135,-29 -180,-74 -39,-39 -63,-92 -63,-147l0 -3546c0,-56 23,-107 62,-147 45,-46 108,-74 181,-74zm430 394l-235 0 0 3199 235 0 0 -3199z"/>
    <path class="fil0" d="M9168 16964l0 -386c0,-88 36,-167 94,-226l1 -1c59,-58 140,-95 229,-95l5833 0c89,0 170,37 229,95l1 1c58,59 94,138 94,226l0 386c0,87 -36,168 -95,226 -58,59 -139,95 -229,95l-5833 0c-89,0 -170,-36 -229,-95 -58,-58 -95,-139 -95,-226zm436 -276l0 166 5609 0 0 -166 -5609 0z"/>
    <path class="fil0" d="M9640 17289l374 0c130,0 248,53 333,138l1 1c86,86 139,204 139,333 0,130 -53,248 -139,333l-1 1c-85,86 -203,139 -333,139l-374 0c-130,0 -248,-53 -333,-139l-1 -1c-86,-85 -139,-203 -139,-333 0,-129 53,-247 139,-333l1 -1c85,-85 203,-138 333,-138zm374 438l-374 0c-10,0 -18,4 -24,9l-1 1c-6,6 -10,15 -10,24 0,10 4,18 10,24l1 1c6,6 14,9 24,9l374 0c10,0 18,-3 25,-9l0 -1c6,-6 10,-14 10,-24 0,-9 -4,-18 -10,-24l0 -1c-7,-5 -15,-9 -25,-9z"/>
    <path class="fil0" d="M14803 17289l375 0c130,0 248,53 334,138 85,86 138,204 138,334 0,130 -53,248 -138,334 -86,86 -204,139 -334,139l-375 0c-130,0 -248,-53 -334,-139 -85,-86 -138,-204 -138,-334 0,-129 53,-247 138,-333 86,-86 204,-139 334,-139zm375 438l-375 0c-9,0 -18,4 -24,10 -6,6 -10,15 -10,24 0,10 4,18 10,25 6,5 15,9 24,9l375 0c9,0 18,-4 24,-10 6,-6 10,-15 10,-24 0,-9 -4,-18 -10,-24 -6,-6 -15,-10 -24,-10z"/>
    <path class="fil0" d="M1142 0l4614 0c111,0 213,46 286,120 75,74 121,176 121,287l0 7974c0,111 -46,213 -121,287 -74,73 -176,120 -286,120l-4614 0c-110,0 -213,-46 -287,-120 -74,-74 -120,-175 -120,-287l0 -7974c0,-112 46,-214 120,-288 74,-73 176,-119 287,-119zm4579 442l-4544 0 0 7904 4544 0 0 -7904z"/>
    <polygon class="fil0" points="909,3431 18348,3431 18348,3869 909,3869 "/>
    <path class="fil0" d="M1759 679l586 0c70,0 135,29 181,75l3 2c45,47 74,111 74,181l0 2677c0,70 -28,134 -74,180l-3 3c-46,46 -111,75 -181,75l-586 0c-71,0 -135,-29 -181,-75l-3 -3c-46,-46 -75,-110 -75,-180l0 -2677c0,-70 29,-134 75,-181l3 -2c46,-46 110,-75 181,-75zm404 440l-223 0 0 2313 223 0 0 -2313z"/>
    <path class="fil0" d="M2443 679l587 0c70,0 134,29 181,75l2 2c46,47 75,111 75,181l0 2677c0,70 -29,134 -75,180l-2 3c-47,46 -111,75 -181,75l-587 0c-70,0 -134,-29 -180,-75l-3 -3c-46,-46 -75,-110 -75,-180l0 -2677c0,-70 29,-134 75,-181l3 -2c46,-46 110,-75 180,-75zm405 440l-223 0 0 2313 223 0 0 -2313z"/>
    <path class="fil0" d="M3109 679l586 0c71,0 135,29 181,75l3 2c46,47 75,111 75,181l0 2677c0,70 -29,134 -75,180l-3 3c-46,46 -110,75 -181,75l-586 0c-71,0 -135,-29 -181,-75l-3 -3c-46,-46 -74,-110 -74,-180l0 -2677c0,-70 29,-134 74,-181l3 -2c46,-46 110,-75 181,-75zm404 440l-222 0 0 2313 222 0 0 -2313z"/>
    <path class="fil0" d="M16191 680l587 0c31,1 61,6 89,16 47,18 83,47 109,84l5 6c26,39 40,86 40,138l0 0c0,29 -5,57 -14,83l-935 2677c-18,53 -54,100 -97,131 -45,34 -103,55 -163,55l-587 1c-30,-1 -60,-6 -88,-16 -47,-18 -84,-47 -110,-84l-4 -6c-27,-40 -41,-87 -41,-138l0 -1c0,-28 5,-56 14,-82l935 -2677c18,-54 54,-100 97,-132 45,-33 104,-54 163,-55zm584 247l0 1 0 -1zm0 2l0 3 0 -3zm0 3l-2 183 2 -183zm-269 186l-201 0 -808 2315 201 0 808 -2315zm-320 -7l2 -157 4 2 -4 -2 0 -3 0 3 -51 -17 51 17 -2 157zm2 -160l1 -52 -1 52zm-322 2663l-51 -18 2 -156 -2 156 -4 -1 4 2 0 3 0 -3 51 17zm-55 -19c-186,-64 -186,-63 0,0zm3 57l1 -52 -1 52zm-586 -28l0 -2 0 2zm0 -2l0 -3 0 3zm0 -3l2 -184 -2 184zm964 -2663l147 50 0 -1 -147 -49z"/>
    <path class="fil0" d="M16876 680l587 0c31,1 61,6 89,16 46,18 83,47 109,84l5 6c26,39 40,86 40,138l0 0c0,29 -5,57 -14,83l-935 2677c-18,53 -54,100 -97,131 -45,34 -103,55 -163,55l-587 1c-30,-1 -60,-6 -89,-16 -46,-18 -83,-47 -109,-84l-5 -6c-26,-40 -40,-87 -40,-138l0 -1c0,-28 5,-56 14,-82l935 -2677c18,-54 54,-100 97,-132 45,-33 104,-54 163,-55zm584 247l0 1 0 -1zm0 2l0 3 0 -3zm0 3l-2 183 2 -183zm-269 186l-201 0 -808 2315 201 0 808 -2315zm-320 -7l2 -157 4 2 -4 -2 0 -3 0 3 -51 -17 51 17 -2 157zm2 -160l1 -52 -1 52zm-322 2663l-51 -18 2 -156 -2 156 -4 -1 4 2 0 3 0 -3 51 17zm-55 -19c-186,-64 -186,-63 0,0zm3 57l1 -52 -1 52zm-586 -28l0 -2 0 2zm0 -2l0 -3 0 3zm0 -3l2 -184 -2 184zm964 -2663l147 50 0 -1 -147 -49z"/>
    <path class="fil0" d="M17541 680l587 0c31,1 61,6 89,16 47,18 83,47 109,84l5 6c26,39 41,86 41,138l-1 0c0,29 -5,57 -14,83l-934 2677c-19,53 -55,100 -98,131 -45,34 -103,55 -163,55l-586 1c-31,-1 -61,-6 -89,-16 -47,-18 -84,-47 -110,-84l-4 -6c-27,-40 -41,-87 -41,-138l1 -1c0,-28 4,-56 13,-82l935 -2677c18,-54 55,-100 97,-132 46,-33 104,-54 163,-55zm584 247l0 1 0 -1zm0 2l0 3 0 -3zm0 3l-2 183 2 -183zm-269 186l-201 0 -808 2315 201 0 808 -2315zm-320 -7l2 -157 4 2 -4 -2 0 -3 0 3 -50 -17 50 17 -2 157zm2 -160l1 -52 -1 52zm-322 2663l-51 -18 3 -156 -3 156 -3 -1 3 2 0 3 0 -3 51 17zm-54 -19c-186,-64 -187,-63 0,0zm3 57l0 -52 0 52zm-587 -28l0 -2 0 2zm0 -2l0 -3 0 3zm0 -3l2 -184 -2 184zm964 -2663l147 50 1 -1 -148 -49z"/>
    <path class="fil0" d="M15701 8558l0 -587c0,-71 29,-135 75,-182l2 -1c46,-45 110,-74 180,-74l1717 0c71,0 136,29 182,75 47,47 76,111 76,182l0 587c0,70 -29,134 -75,181l-1 1c-46,47 -111,76 -182,76l-1717 0c-70,0 -134,-29 -180,-75l-3 -2c-45,-47 -74,-111 -74,-181zm439 -405l0 224 1354 0 0 -224 -1354 0z"/>
    <path class="fil0" d="M15701 7879l0 -586c0,-71 29,-136 75,-182l2 -1c46,-46 110,-75 180,-75l1717 0c71,0 136,29 182,76 47,46 76,111 76,182l0 586c0,70 -29,134 -75,181l-1 1c-46,47 -111,76 -182,76l-1717 0c-70,0 -134,-29 -180,-75l-3 -2c-45,-47 -74,-111 -74,-181zm439 -405l0 224 1354 0 0 -224 -1354 0z"/>
    <path class="fil0" d="M15701 7246l0 -587c0,-71 29,-135 75,-182l2 -1c46,-46 110,-74 180,-74l1717 0c71,0 136,29 182,75 47,47 76,111 76,182l0 587c0,70 -29,134 -75,180l-1 2c-46,46 -111,76 -182,76l-1717 0c-70,0 -134,-29 -180,-75l-3 -3c-45,-46 -74,-110 -74,-180zm439 -405l0 224 1354 0 0 -224 -1354 0z"/>
   </g>
   <path class="fil0" d="M6195 14435l0 -1156c0,-67 28,-128 72,-172 44,-45 104,-72 170,-72 67,0 127,27 171,72 44,44 72,105 72,172l0 1156c0,67 -28,129 -72,173 -44,44 -104,71 -170,71 -67,0 -127,-27 -171,-71 -44,-44 -72,-106 -72,-173z"/>
   <path class="fil0" d="M4843 6829l0 -1156c0,-67 28,-128 72,-172 44,-44 104,-72 170,-72 67,0 127,28 171,72 44,44 72,105 72,172l0 1156c0,68 -28,129 -72,173 -44,44 -104,71 -170,71 -67,0 -127,-27 -171,-71 -44,-44 -72,-105 -72,-173z"/>
  </g>
 </g>
</svg>
